Coordinates
version=1
nRows=11
nColumns=40
inDegrees=yes

Units are S.I. units (second, meters, Newtons, ...)
If the header above contains a line with 'inDegrees', this indicates whether rotational values are in degrees (yes) or radians (no).

endheader
time	pelvis_tilt	pelvis_list	pelvis_rotation	pelvis_tx	pelvis_ty	pelvis_tz	hip_flexion_r	hip_adduction_r	hip_rotation_r	knee_angle_r	knee_angle_r_beta	ankle_angle_r	subtalar_angle_r	mtp_angle_r	hip_flexion_l	hip_adduction_l	hip_rotation_l	knee_angle_l	knee_angle_l_beta	ankle_angle_l	subtalar_angle_l	mtp_angle_l	lumbar_extension	lumbar_bending	lumbar_rotation	arm_flex_r	arm_add_r	arm_rot_r	elbow_flex_r	pro_sup_r	wrist_flex_r	wrist_dev_r	arm_flex_l	arm_add_l	arm_rot_l	elbow_flex_l	pro_sup_l	wrist_flex_l	wrist_dev_l
      7.46000000	     27.10410801	      3.53895258	   -175.85381990	      0.37974594	      0.82326576	     -0.59078774	     53.55721694	    -12.87869999	    -10.57338674	     23.21568886	      0.40519021	     -2.71112923	      0.00000000	      0.00000000	     57.12665170	    -12.13590607	     -4.82414286	     24.63465069	      0.42995576	     -4.12762161	      0.00000000	      0.00000000	    -50.68749360	      1.33333240	      3.88235093	     53.97875431	    -21.64955475	     49.41727697	     25.77626564	     59.97888223	      0.00000000	      0.00000000	     60.61367182	     -3.76597358	     19.86307786	     14.93413057	     34.97908040	      0.00000000	      0.00000000
      7.46500000	     26.30090677	      3.04835043	   -176.32454073	      0.37866375	      0.82487059	     -0.59218638	     52.86480256	    -12.74295802	    -10.14961521	     23.34065962	      0.40737136	     -2.66233116	      0.00000000	      0.00000000	     55.99434798	    -12.50946043	     -6.26296226	     24.70348317	      0.43115712	     -3.93634296	      0.00000000	      0.00000000	    -51.31603920	      0.56589782	      3.80794225	     55.14697762	    -22.55813250	     55.40559484	     25.88897214	     63.60264944	      0.00000000	      0.00000000	     60.78679762	     -3.81083077	     20.35755848	     14.44235245	     34.10581624	      0.00000000	      0.00000000
      7.47000000	     26.05619477	      3.20121733	   -176.20707519	      0.37827471	      0.82535506	     -0.59210634	     52.53355087	    -12.72949031	    -10.53179254	     23.36941966	      0.40787332	     -2.61160340	      0.00000000	      0.00000000	     55.75493570	    -12.52083748	     -6.04639945	     24.66245253	      0.43044100	     -3.91330439	      0.00000000	      0.00000000	    -51.26024963	      0.75614474	      3.88912115	     54.42799614	    -22.30979315	     53.41829331	     26.08035087	     62.22550355	      0.00000000	      0.00000000	     60.71870351	     -3.69169197	     20.32314638	     14.06067362	     34.64561626	      0.00000000	      0.00000000
      7.47500000	     26.41400575	      3.70130541	   -175.76305367	      0.37870300	      0.82467326	     -0.59132656	     52.68779685	    -12.75314902	    -11.04622896	     23.18312308	      0.40462183	     -2.58316653	      0.00000000	      0.00000000	     56.36762272	    -12.26839897	     -4.67921115	     24.55510833	      0.42856749	     -4.07558094	      0.00000000	      0.00000000	    -50.47702483	      1.51437262	      3.94735624	     53.59975318	    -21.74640339	     51.02026468	     25.65419223	     60.45740621	      0.00000000	      0.00000000	     59.86157410	     -3.91111739	     20.10901267	     15.05143927	     35.38199734	      0.00000000	      0.00000000
      7.48000000	     25.59519747	      3.37272920	   -176.11835921	      0.37751103	      0.82638198	     -0.59237302	     51.92017092	    -12.65851376	    -11.06405787	     23.35021811	      0.40753819	     -2.62832536	      0.00000000	      0.00000000	     55.25858756	    -12.61675346	     -5.87001682	     24.61679679	      0.42964416	     -3.83414090	      0.00000000	      0.00000000	    -51.10981831	      0.90492767	      4.07571181	     53.36964219	    -21.99893692	     51.28085331	     26.14343190	     60.39022209	      0.00000000	      0.00000000	     60.38680325	     -3.58060725	     20.36369109	     13.77993762	     35.46154076	      0.00000000	      0.00000000
      7.48500000	     25.91207299	      3.75914202	   -175.75183152	      0.37786322	      0.82584870	     -0.59176644	     52.01783447	    -12.65800666	    -11.38782709	     23.05616182	      0.40240594	     -2.67813868	      0.00000000	      0.00000000	     55.77977192	    -12.38857998	     -4.75260639	     24.53014481	      0.42813179	     -4.10191368	      0.00000000	      0.00000000	    -50.39268887	      1.52386258	      3.99417703	     52.74911334	    -21.40186123	     49.50389455	     25.73901092	     59.06026330	      0.00000000	      0.00000000	     59.61710004	     -3.89329932	     20.22362583	     14.58548280	     36.03619018	      0.00000000	      0.00000000
      7.49000000	     25.26331662	      3.46107467	   -176.11671070	      0.37696530	      0.82727325	     -0.59278103	     51.43441074	    -12.53816053	    -11.27132285	     23.20768284	      0.40505048	     -2.73877872	      0.00000000	      0.00000000	     54.84953621	    -12.71010848	     -5.77313067	     24.52336671	      0.42801349	     -3.91958865	      0.00000000	      0.00000000	    -50.82921032	      0.95986367	      4.11285653	     52.62853129	    -21.62922672	     50.06570928	     26.12094146	     59.14079435	      0.00000000	      0.00000000	     59.98230711	     -3.63590739	     20.49207849	     13.63693098	     36.10215550	      0.00000000	      0.00000000
      7.49500000	     25.17495896	      3.37239498	   -176.28962533	      0.37680065	      0.82761359	     -0.59336369	     51.30435951	    -12.37538265	    -10.93729306	     23.05802422	      0.40243844	     -2.68956625	      0.00000000	      0.00000000	     54.63540951	    -12.81530663	     -5.91686348	     24.42390480	      0.42627756	     -3.91092526	      0.00000000	      0.00000000	    -50.61119439	      0.80410279	      4.00638290	     53.87704499	    -22.43407164	     56.47286715	     25.83976953	     62.97198319	      0.00000000	      0.00000000	     59.37061510	     -4.11954764	     20.81743274	     14.43795603	     35.23722712	      0.00000000	      0.00000000
      7.50000000	     24.97683258	      3.46707332	   -176.24001573	      0.37654391	      0.82817795	     -0.59341424	     50.98262203	    -12.32497118	    -11.19009927	     22.92869611	      0.40018124	     -2.71078976	      0.00000000	      0.00000000	     54.39594246	    -12.83662023	     -5.73978109	     24.32478374	      0.42454757	     -3.91840134	      0.00000000	      0.00000000	    -50.50058452	      0.91416415	      4.05619805	     53.67134062	    -22.49160599	     56.49584058	     25.85254154	     64.15810311	      0.00000000	      0.00000000	     59.18167642	     -4.09749992	     20.76614625	     14.40738469	     34.73132957	      0.00000000	      0.00000000
      7.50500000	     25.10674844	      3.76828214	   -175.93844091	      0.37669096	      0.82805338	     -0.59299946	     50.92318775	    -12.33802183	    -11.60794114	     22.71615073	      0.39647162	     -2.79431029	      0.00000000	      0.00000000	     54.65901513	    -12.67374653	     -4.88728958	     24.23058247	      0.42290344	     -4.08305549	      0.00000000	      0.00000000	    -50.00477242	      1.39132695	      3.99522031	     52.92438990	    -21.97469358	     54.24426306	     25.62849130	     62.64887729	      0.00000000	      0.00000000	     58.69044369	     -4.27140694	     20.62358634	     14.82351938	     35.20184732	      0.00000000	      0.00000000
      7.51000000	     24.66604413	      3.65426649	   -176.14661722	      0.37602284	      0.82911801	     -0.59356400	     50.46176601	    -12.22879394	    -11.69416934	     22.74560955	      0.39698578	     -2.85172136	      0.00000000	      0.00000000	     54.05004337	    -12.89167750	     -5.39989395	     24.22281329	      0.42276785	     -3.95382606	      0.00000000	      0.00000000	    -50.17971870	      1.09624558	      4.21016728	     52.36413447	    -22.03211367	     53.09629173	     25.99394671	     61.89013931	      0.00000000	      0.00000000	     58.92346684	     -3.93434071	     20.79422232	     13.98093009	     35.42511550	      0.00000000	      0.00000000
